<svg width="67" height="237" viewBox="0 0 67 237" fill="none" xmlns="http://www.w3.org/2000/svg">
<path d="M0 237L0 0H51C59.8366 0 67 7.16344 67 16V221C67 229.837 59.8366 237 51 237H0Z" fill="#232321"/>
<path d="M39 211.416C39 211.533 38.9627 211.629 38.888 211.704C38.8133 211.779 38.7173 211.816 38.6 211.816H28.2C28.0827 211.816 27.9867 211.779 27.912 211.704C27.8373 211.629 27.8 211.533 27.8 211.416V209.96C27.8 209.8 27.8373 209.683 27.912 209.608C27.9867 209.533 28.0453 209.485 28.088 209.464L34.76 205.192H28.2C28.0827 205.192 27.9867 205.155 27.912 205.08C27.8373 205.005 27.8 204.915 27.8 204.808V203.176C27.8 203.059 27.8373 202.963 27.912 202.888C27.9867 202.813 28.0827 202.776 28.2 202.776H38.6C38.7067 202.776 38.8027 202.813 38.888 202.888C38.9627 202.963 39 203.059 39 203.176V204.648C39 204.808 38.9627 204.925 38.888 205C38.8027 205.064 38.744 205.112 38.712 205.144L32.248 209.4H38.6C38.7173 209.4 38.8133 209.437 38.888 209.512C38.9627 209.587 39 209.683 39 209.8V211.416ZM39 200.202C39 200.308 38.9627 200.399 38.888 200.474C38.8133 200.548 38.7173 200.586 38.6 200.586H31.08C30.9627 200.586 30.8667 200.548 30.792 200.474C30.7173 200.399 30.68 200.308 30.68 200.202V198.602C30.68 198.484 30.7173 198.388 30.792 198.314C30.8667 198.239 30.9627 198.202 31.08 198.202H38.6C38.7173 198.202 38.8133 198.239 38.888 198.314C38.9627 198.388 39 198.484 39 198.602V200.202ZM29.4 200.25C29.4 200.356 29.3627 200.447 29.288 200.522C29.2133 200.596 29.1173 200.634 29 200.634H27.72C27.6027 200.634 27.5067 200.596 27.432 200.522C27.3467 200.447 27.304 200.356 27.304 200.25V198.57C27.304 198.452 27.3467 198.356 27.432 198.282C27.5067 198.196 27.6027 198.154 27.72 198.154H29C29.1173 198.154 29.2133 198.196 29.288 198.282C29.3627 198.356 29.4 198.452 29.4 198.57V200.25ZM39 195.795C39 195.912 38.9627 196.008 38.888 196.083C38.8133 196.158 38.7173 196.195 38.6 196.195H28.04C27.9227 196.195 27.8267 196.158 27.752 196.083C27.6773 196.008 27.64 195.912 27.64 195.795V194.227C27.64 194.12 27.6773 194.03 27.752 193.955C27.8267 193.88 27.9227 193.843 28.04 193.843H33.448L30.952 191.379C30.8773 191.294 30.8133 191.219 30.76 191.155C30.7067 191.08 30.68 190.968 30.68 190.819V189.011C30.68 188.904 30.7173 188.819 30.792 188.755C30.856 188.691 30.936 188.659 31.032 188.659C31.0747 188.659 31.1227 188.67 31.176 188.691C31.2293 188.712 31.272 188.75 31.304 188.803L34.408 191.891L38.392 188.403C38.4773 188.307 38.5627 188.259 38.648 188.259C38.744 188.259 38.8293 188.296 38.904 188.371C38.968 188.435 39 188.515 39 188.611V190.467C39 190.627 38.9733 190.744 38.92 190.819C38.8667 190.883 38.8027 190.958 38.728 191.043L35.592 193.843H38.6C38.7173 193.843 38.8133 193.88 38.888 193.955C38.9627 194.03 39 194.12 39 194.227V195.795ZM39.16 183.78C39.16 185.007 38.8187 185.983 38.136 186.708C37.4533 187.423 36.4613 187.801 35.16 187.844C35.0747 187.844 34.9627 187.844 34.824 187.844C34.6747 187.844 34.5573 187.844 34.472 187.844C33.6507 187.801 32.9467 187.615 32.36 187.284C31.7627 186.953 31.3093 186.489 31 185.892C30.68 185.295 30.52 184.596 30.52 183.796C30.52 182.9 30.7067 182.153 31.08 181.556C31.4427 180.948 31.944 180.495 32.584 180.196C33.2133 179.887 33.9387 179.732 34.76 179.732H35.128C35.2347 179.732 35.3253 179.775 35.4 179.86C35.4747 179.935 35.512 180.025 35.512 180.132V185.364C35.5227 185.364 35.544 185.364 35.576 185.364C35.5973 185.364 35.6187 185.364 35.64 185.364C35.9813 185.353 36.296 185.289 36.584 185.172C36.8613 185.044 37.0853 184.868 37.256 184.644C37.4267 184.409 37.512 184.132 37.512 183.812C37.512 183.545 37.4747 183.327 37.4 183.156C37.3253 182.985 37.2347 182.847 37.128 182.74C37.0213 182.623 36.9307 182.537 36.856 182.484C36.7493 182.388 36.6853 182.313 36.664 182.26C36.632 182.196 36.616 182.1 36.616 181.972V180.308C36.616 180.201 36.648 180.116 36.712 180.052C36.7653 179.977 36.8453 179.945 36.952 179.956C37.1227 179.967 37.336 180.057 37.592 180.228C37.8373 180.388 38.0827 180.628 38.328 180.948C38.5627 181.268 38.76 181.668 38.92 182.148C39.08 182.617 39.16 183.161 39.16 183.78ZM34.056 185.364V182.228H34.024C33.64 182.228 33.3093 182.292 33.032 182.42C32.744 182.537 32.52 182.713 32.36 182.948C32.2 183.183 32.12 183.465 32.12 183.796C32.12 184.127 32.2 184.409 32.36 184.644C32.52 184.879 32.744 185.06 33.032 185.188C33.3093 185.305 33.64 185.364 34.024 185.364H34.056ZM42.04 174.201C42.04 174.319 42.0027 174.415 41.928 174.489C41.8533 174.564 41.7573 174.601 41.64 174.601H31.08C30.9627 174.601 30.8667 174.564 30.792 174.489C30.7173 174.415 30.68 174.319 30.68 174.201V172.681C30.68 172.564 30.7173 172.468 30.792 172.393C30.8667 172.319 30.9627 172.281 31.08 172.281H31.688C31.3467 172.025 31.0693 171.695 30.856 171.289C30.632 170.884 30.52 170.377 30.52 169.769C30.52 169.215 30.6107 168.735 30.792 168.329C30.9627 167.913 31.2133 167.567 31.544 167.289C31.864 167.001 32.2533 166.783 32.712 166.633C33.1707 166.473 33.688 166.383 34.264 166.361C34.4667 166.351 34.6587 166.345 34.84 166.345C35.0213 166.345 35.2187 166.351 35.432 166.361C35.976 166.372 36.4773 166.457 36.936 166.617C37.3947 166.767 37.7893 166.985 38.12 167.273C38.4507 167.561 38.7067 167.913 38.888 168.329C39.0693 168.735 39.16 169.215 39.16 169.769C39.16 170.313 39.064 170.788 38.872 171.193C38.6693 171.588 38.3973 171.913 38.056 172.169H41.64C41.7573 172.169 41.8533 172.207 41.928 172.281C42.0027 172.356 42.04 172.447 42.04 172.553V174.201ZM37.24 170.489C37.24 170.084 37.1547 169.764 36.984 169.529C36.8027 169.295 36.568 169.129 36.28 169.033C35.992 168.927 35.6773 168.863 35.336 168.841C35.0053 168.82 34.6747 168.82 34.344 168.841C34.0027 168.863 33.688 168.927 33.4 169.033C33.112 169.129 32.8827 169.295 32.712 169.529C32.5307 169.764 32.44 170.084 32.44 170.489C32.44 170.884 32.5307 171.204 32.712 171.449C32.8933 171.695 33.1227 171.871 33.4 171.977C33.6773 172.084 33.976 172.148 34.296 172.169C34.488 172.18 34.6853 172.185 34.888 172.185C35.0907 172.185 35.2933 172.18 35.496 172.169C35.7947 172.159 36.0773 172.095 36.344 171.977C36.6 171.849 36.8133 171.668 36.984 171.433C37.1547 171.188 37.24 170.873 37.24 170.489ZM39 164.264C39 164.371 38.9627 164.462 38.888 164.536C38.8133 164.611 38.7173 164.648 38.6 164.648H31.08C30.9733 164.648 30.8827 164.611 30.808 164.536C30.7227 164.462 30.68 164.371 30.68 164.264V162.696C30.68 162.59 30.7227 162.499 30.808 162.424C30.8827 162.339 30.9733 162.296 31.08 162.296H31.72C31.3893 162.03 31.1333 161.704 30.952 161.32C30.7707 160.926 30.68 160.472 30.68 159.96V159.272C30.68 159.166 30.7173 159.075 30.792 159C30.8667 158.926 30.9627 158.888 31.08 158.888H32.456C32.5733 158.888 32.6693 158.926 32.744 159C32.8187 159.075 32.856 159.166 32.856 159.272V160.68C32.856 161.15 32.9893 161.518 33.256 161.784C33.512 162.051 33.88 162.184 34.36 162.184H38.6C38.7173 162.184 38.8133 162.222 38.888 162.296C38.9627 162.371 39 162.467 39 162.584V164.264ZM39.16 153.981C39.16 154.866 39.016 155.608 38.728 156.205C38.4293 156.802 38.008 157.261 37.464 157.581C36.92 157.89 36.2853 158.061 35.56 158.093C35.3467 158.104 35.1067 158.109 34.84 158.109C34.5627 158.109 34.3227 158.104 34.12 158.093C33.384 158.061 32.7493 157.88 32.216 157.549C31.672 157.218 31.256 156.754 30.968 156.157C30.6693 155.56 30.52 154.834 30.52 153.981C30.52 153.138 30.6693 152.418 30.968 151.821C31.256 151.224 31.672 150.76 32.216 150.429C32.7493 150.098 33.384 149.917 34.12 149.885C34.3227 149.864 34.5627 149.853 34.84 149.853C35.1067 149.853 35.3467 149.864 35.56 149.885C36.2853 149.917 36.92 150.093 37.464 150.413C38.008 150.722 38.4293 151.176 38.728 151.773C39.016 152.37 39.16 153.106 39.16 153.981ZM37.4 153.981C37.4 153.458 37.24 153.064 36.92 152.797C36.5893 152.53 36.1093 152.386 35.48 152.365C35.32 152.354 35.1067 152.349 34.84 152.349C34.5733 152.349 34.36 152.354 34.2 152.365C33.5813 152.386 33.1067 152.53 32.776 152.797C32.4453 153.064 32.28 153.458 32.28 153.981C32.28 154.504 32.4453 154.904 32.776 155.181C33.1067 155.448 33.5813 155.592 34.2 155.613C34.36 155.624 34.5733 155.629 34.84 155.629C35.1067 155.629 35.32 155.624 35.48 155.613C36.1093 155.592 36.5893 155.448 36.92 155.181C37.24 154.904 37.4 154.504 37.4 153.981ZM39.16 145.091C39.16 145.625 39.0747 146.099 38.904 146.515C38.7227 146.931 38.4667 147.283 38.136 147.571C37.7947 147.859 37.3947 148.078 36.936 148.227C36.4667 148.377 35.9493 148.467 35.384 148.499C35.1813 148.51 35 148.515 34.84 148.515C34.6693 148.515 34.488 148.51 34.296 148.499C33.7413 148.478 33.2347 148.393 32.776 148.243C32.3173 148.083 31.9227 147.865 31.592 147.587C31.2507 147.299 30.9893 146.947 30.808 146.531C30.616 146.105 30.52 145.625 30.52 145.091C30.52 144.537 30.616 144.062 30.808 143.667C30.9893 143.273 31.2293 142.947 31.528 142.691H28.04C27.9227 142.691 27.8267 142.654 27.752 142.579C27.6773 142.505 27.64 142.409 27.64 142.291V140.643C27.64 140.537 27.6773 140.446 27.752 140.372C27.8267 140.297 27.9227 140.259 28.04 140.259H38.6C38.7173 140.259 38.8133 140.297 38.888 140.372C38.9627 140.446 39 140.537 39 140.643V142.179C39 142.286 38.9627 142.377 38.888 142.451C38.8133 142.526 38.7173 142.563 38.6 142.563H38.056C38.376 142.83 38.6427 143.166 38.856 143.571C39.0587 143.977 39.16 144.483 39.16 145.091ZM37.24 144.355C37.24 143.961 37.1493 143.646 36.968 143.411C36.7867 143.166 36.5573 142.99 36.28 142.883C36.0027 142.766 35.704 142.702 35.384 142.691C35.1813 142.67 34.9787 142.659 34.776 142.659C34.5733 142.659 34.376 142.67 34.184 142.691C33.8853 142.702 33.608 142.766 33.352 142.883C33.0853 143.001 32.8667 143.182 32.696 143.427C32.5253 143.662 32.44 143.971 32.44 144.355C32.44 144.761 32.5307 145.081 32.712 145.315C32.8827 145.55 33.112 145.721 33.4 145.827C33.688 145.923 34.0027 145.982 34.344 146.003C34.6747 146.035 35.0053 146.035 35.336 146.003C35.6773 145.982 35.992 145.923 36.28 145.827C36.568 145.721 36.8027 145.55 36.984 145.315C37.1547 145.081 37.24 144.761 37.24 144.355ZM39.16 135.17C39.16 135.789 39.0213 136.338 38.744 136.818C38.456 137.288 38.0453 137.656 37.512 137.922C36.968 138.178 36.312 138.306 35.544 138.306H31.08C30.9627 138.306 30.8667 138.269 30.792 138.194C30.7173 138.12 30.68 138.029 30.68 137.922V136.226C30.68 136.109 30.7173 136.013 30.792 135.938C30.8667 135.864 30.9627 135.826 31.08 135.826H35.448C36.6427 135.826 37.24 135.304 37.24 134.258C37.24 133.757 37.0853 133.362 36.776 133.074C36.456 132.776 36.0133 132.626 35.448 132.626H31.08C30.9627 132.626 30.8667 132.589 30.792 132.514C30.7173 132.44 30.68 132.344 30.68 132.226V130.53C30.68 130.424 30.7173 130.333 30.792 130.258C30.8667 130.184 30.9627 130.146 31.08 130.146H38.6C38.7173 130.146 38.8133 130.184 38.888 130.258C38.9627 130.333 39 130.424 39 130.53V132.098C39 132.216 38.9627 132.312 38.888 132.386C38.8133 132.461 38.7173 132.498 38.6 132.498H37.976C38.36 132.776 38.6533 133.133 38.856 133.57C39.0587 134.008 39.16 134.541 39.16 135.17ZM39.16 124.437C39.16 125.215 39.016 125.903 38.728 126.501C38.44 127.087 38.024 127.551 37.48 127.893C36.9253 128.234 36.264 128.421 35.496 128.453C35.3253 128.463 35.112 128.469 34.856 128.469C34.5893 128.469 34.3707 128.463 34.2 128.453C33.4213 128.421 32.76 128.239 32.216 127.909C31.6613 127.567 31.24 127.098 30.952 126.501C30.664 125.903 30.52 125.215 30.52 124.437C30.52 123.722 30.6213 123.114 30.824 122.613C31.016 122.111 31.2613 121.701 31.56 121.381C31.8587 121.061 32.1733 120.826 32.504 120.677C32.824 120.517 33.1067 120.431 33.352 120.421C33.4587 120.41 33.5547 120.447 33.64 120.533C33.7147 120.607 33.752 120.698 33.752 120.805V122.517C33.752 122.623 33.7253 122.709 33.672 122.773C33.608 122.826 33.5227 122.879 33.416 122.933C33.0427 123.082 32.776 123.274 32.616 123.509C32.456 123.743 32.376 124.037 32.376 124.389C32.376 124.869 32.5307 125.247 32.84 125.525C33.1493 125.802 33.6293 125.951 34.28 125.973C34.696 125.983 35.0747 125.983 35.416 125.973C36.0773 125.941 36.5573 125.791 36.856 125.525C37.1547 125.247 37.304 124.869 37.304 124.389C37.304 124.015 37.224 123.717 37.064 123.493C36.904 123.269 36.6373 123.082 36.264 122.933C36.1573 122.89 36.0773 122.837 36.024 122.773C35.96 122.709 35.928 122.623 35.928 122.517V120.805C35.928 120.698 35.9707 120.607 36.056 120.533C36.1307 120.447 36.2213 120.41 36.328 120.421C36.5093 120.431 36.7227 120.485 36.968 120.581C37.2133 120.666 37.464 120.81 37.72 121.013C37.976 121.205 38.216 121.455 38.44 121.765C38.6533 122.074 38.8293 122.453 38.968 122.901C39.096 123.338 39.16 123.85 39.16 124.437ZM39 114.851C39 115.513 38.8933 116.078 38.68 116.547C38.456 117.017 38.1147 117.374 37.656 117.619C37.1973 117.854 36.6213 117.971 35.928 117.971H32.568V119.219C32.568 119.337 32.5307 119.433 32.456 119.507C32.3813 119.582 32.2853 119.619 32.168 119.619H31.08C30.9627 119.619 30.8667 119.582 30.792 119.507C30.7173 119.433 30.68 119.337 30.68 119.219V117.971H28.04C27.9227 117.971 27.8267 117.934 27.752 117.859C27.6773 117.774 27.64 117.678 27.64 117.571V116.003C27.64 115.886 27.6773 115.79 27.752 115.715C27.8267 115.641 27.9227 115.603 28.04 115.603H30.68V113.603C30.68 113.497 30.7173 113.406 30.792 113.331C30.8667 113.257 30.9627 113.219 31.08 113.219H32.168C32.2853 113.219 32.3813 113.257 32.456 113.331C32.5307 113.406 32.568 113.497 32.568 113.603V115.603H35.736C36.1413 115.603 36.4613 115.534 36.696 115.395C36.92 115.246 37.032 114.99 37.032 114.627V113.459C37.032 113.353 37.0693 113.262 37.144 113.187C37.2187 113.113 37.3093 113.075 37.416 113.075H38.6C38.7173 113.075 38.8133 113.113 38.888 113.187C38.9627 113.262 39 113.353 39 113.459V114.851ZM39.16 104.34C39.16 105.226 39.016 105.967 38.728 106.564C38.4293 107.162 38.008 107.62 37.464 107.94C36.92 108.25 36.2853 108.42 35.56 108.452C35.3467 108.463 35.1067 108.468 34.84 108.468C34.5627 108.468 34.3227 108.463 34.12 108.452C33.384 108.42 32.7493 108.239 32.216 107.908C31.672 107.578 31.256 107.114 30.968 106.516C30.6693 105.919 30.52 105.194 30.52 104.34C30.52 103.498 30.6693 102.778 30.968 102.18C31.256 101.583 31.672 101.119 32.216 100.788C32.7493 100.458 33.384 100.276 34.12 100.244C34.3227 100.223 34.5627 100.212 34.84 100.212C35.1067 100.212 35.3467 100.223 35.56 100.244C36.2853 100.276 36.92 100.452 37.464 100.772C38.008 101.082 38.4293 101.535 38.728 102.132C39.016 102.73 39.16 103.466 39.16 104.34ZM37.4 104.34C37.4 103.818 37.24 103.423 36.92 103.156C36.5893 102.89 36.1093 102.746 35.48 102.724C35.32 102.714 35.1067 102.708 34.84 102.708C34.5733 102.708 34.36 102.714 34.2 102.724C33.5813 102.746 33.1067 102.89 32.776 103.156C32.4453 103.423 32.28 103.818 32.28 104.34C32.28 104.863 32.4453 105.263 32.776 105.54C33.1067 105.807 33.5813 105.951 34.2 105.972C34.36 105.983 34.5733 105.988 34.84 105.988C35.1067 105.988 35.32 105.983 35.48 105.972C36.1093 105.951 36.5893 105.807 36.92 105.54C37.24 105.263 37.4 104.863 37.4 104.34ZM39 97.305C39 97.4223 38.9627 97.5183 38.888 97.593C38.8133 97.6677 38.7173 97.705 38.6 97.705H32.568V98.953C32.568 99.0703 32.5307 99.1663 32.456 99.241C32.3813 99.3157 32.2853 99.353 32.168 99.353H31.08C30.9627 99.353 30.8667 99.3157 30.792 99.241C30.7173 99.1663 30.68 99.0703 30.68 98.953V97.705H30.104C29.4213 97.705 28.8613 97.577 28.424 97.321C27.9867 97.065 27.6667 96.6917 27.464 96.201C27.2613 95.7103 27.16 95.1077 27.16 94.393V93.225C27.16 93.1077 27.1973 93.0117 27.272 92.937C27.3467 92.8623 27.4427 92.825 27.56 92.825H28.648C28.7653 92.825 28.8613 92.8623 28.936 92.937C29.0107 93.0117 29.048 93.1077 29.048 93.225V94.297C29.048 94.6917 29.144 94.969 29.336 95.129C29.528 95.2783 29.8107 95.353 30.184 95.353H30.68V93.385C30.68 93.2677 30.7173 93.1717 30.792 93.097C30.8667 93.0223 30.9627 92.985 31.08 92.985H32.168C32.2853 92.985 32.3813 93.0223 32.456 93.097C32.5307 93.1717 32.568 93.2677 32.568 93.385V95.353H38.6C38.7173 95.353 38.8133 95.3903 38.888 95.465C38.9627 95.5397 39 95.6303 39 95.737V97.305ZM39 84.8982C39 85.5596 38.8933 86.1249 38.68 86.5942C38.456 87.0636 38.1147 87.4209 37.656 87.6662C37.1973 87.9009 36.6213 88.0182 35.928 88.0182H32.568V89.2662C32.568 89.3836 32.5307 89.4796 32.456 89.5542C32.3813 89.6289 32.2853 89.6662 32.168 89.6662H31.08C30.9627 89.6662 30.8667 89.6289 30.792 89.5542C30.7173 89.4796 30.68 89.3836 30.68 89.2662V88.0182H28.04C27.9227 88.0182 27.8267 87.9809 27.752 87.9062C27.6773 87.8209 27.64 87.7249 27.64 87.6182V86.0502C27.64 85.9329 27.6773 85.8369 27.752 85.7622C27.8267 85.6876 27.9227 85.6502 28.04 85.6502H30.68V83.6502C30.68 83.5436 30.7173 83.4529 30.792 83.3782C30.8667 83.3036 30.9627 83.2662 31.08 83.2662H32.168C32.2853 83.2662 32.3813 83.3036 32.456 83.3782C32.5307 83.4529 32.568 83.5436 32.568 83.6502V85.6502H35.736C36.1413 85.6502 36.4613 85.5809 36.696 85.4422C36.92 85.2929 37.032 85.0369 37.032 84.6742V83.5062C37.032 83.3996 37.0693 83.3089 37.144 83.2342C37.2187 83.1596 37.3093 83.1222 37.416 83.1222H38.6C38.7173 83.1222 38.8133 83.1596 38.888 83.2342C38.9627 83.3089 39 83.3996 39 83.5062V84.8982ZM39 81.3264C39 81.4437 38.9627 81.5397 38.888 81.6144C38.8133 81.689 38.7173 81.7264 38.6 81.7264H28.04C27.9227 81.7264 27.8267 81.689 27.752 81.6144C27.6773 81.5397 27.64 81.4437 27.64 81.3264V79.5984C27.64 79.4917 27.6773 79.401 27.752 79.3264C27.8267 79.2517 27.9227 79.2144 28.04 79.2144H31.64C31.2987 78.9264 31.0267 78.5744 30.824 78.1584C30.6213 77.7424 30.52 77.241 30.52 76.6544C30.52 76.025 30.664 75.4704 30.952 74.9904C31.2293 74.4997 31.64 74.1157 32.184 73.8384C32.7173 73.561 33.368 73.4224 34.136 73.4224H38.6C38.7173 73.4224 38.8133 73.4597 38.888 73.5344C38.9627 73.609 39 73.705 39 73.8224V75.5664C39 75.673 38.9627 75.7637 38.888 75.8384C38.8133 75.913 38.7173 75.9504 38.6 75.9504H34.232C33.6667 75.9504 33.2293 76.089 32.92 76.3664C32.6 76.6437 32.44 77.0384 32.44 77.5504C32.44 78.0517 32.6 78.457 32.92 78.7664C33.2293 79.065 33.6667 79.2144 34.232 79.2144H38.6C38.7173 79.2144 38.8133 79.2517 38.888 79.3264C38.9627 79.401 39 79.4917 39 79.5984V81.3264ZM39.16 67.7956C39.16 69.0223 38.8187 69.9983 38.136 70.7236C37.4533 71.4383 36.4613 71.817 35.16 71.8596C35.0747 71.8596 34.9627 71.8596 34.824 71.8596C34.6747 71.8596 34.5573 71.8596 34.472 71.8596C33.6507 71.817 32.9467 71.6303 32.36 71.2996C31.7627 70.969 31.3093 70.505 31 69.9076C30.68 69.3103 30.52 68.6116 30.52 67.8116C30.52 66.9156 30.7067 66.169 31.08 65.5716C31.4427 64.9636 31.944 64.5103 32.584 64.2116C33.2133 63.9023 33.9387 63.7476 34.76 63.7476H35.128C35.2347 63.7476 35.3253 63.7903 35.4 63.8756C35.4747 63.9503 35.512 64.041 35.512 64.1476V69.3796C35.5227 69.3796 35.544 69.3796 35.576 69.3796C35.5973 69.3796 35.6187 69.3796 35.64 69.3796C35.9813 69.369 36.296 69.305 36.584 69.1876C36.8613 69.0596 37.0853 68.8836 37.256 68.6596C37.4267 68.425 37.512 68.1476 37.512 67.8276C37.512 67.561 37.4747 67.3423 37.4 67.1716C37.3253 67.001 37.2347 66.8623 37.128 66.7556C37.0213 66.6383 36.9307 66.553 36.856 66.4996C36.7493 66.4036 36.6853 66.329 36.664 66.2756C36.632 66.2116 36.616 66.1156 36.616 65.9876V64.3236C36.616 64.217 36.648 64.1316 36.712 64.0676C36.7653 63.993 36.8453 63.961 36.952 63.9716C37.1227 63.9823 37.336 64.073 37.592 64.2436C37.8373 64.4036 38.0827 64.6436 38.328 64.9636C38.5627 65.2836 38.76 65.6836 38.92 66.1636C39.08 66.633 39.16 67.177 39.16 67.7956ZM34.056 69.3796V66.2436H34.024C33.64 66.2436 33.3093 66.3076 33.032 66.4356C32.744 66.553 32.52 66.729 32.36 66.9636C32.2 67.1983 32.12 67.481 32.12 67.8116C32.12 68.1423 32.2 68.425 32.36 68.6596C32.52 68.8943 32.744 69.0756 33.032 69.2036C33.3093 69.321 33.64 69.3796 34.024 69.3796H34.056ZM42.04 57.5189C42.04 57.6042 42.008 57.6842 41.944 57.7589C41.88 57.8229 41.8 57.8549 41.704 57.8549C41.6827 57.8549 41.6507 57.8495 41.608 57.8389C41.576 57.8282 41.5333 57.8122 41.48 57.7909L38.488 56.5429L31.24 59.6149C31.1547 59.6469 31.0853 59.6629 31.032 59.6629C30.936 59.6522 30.856 59.6149 30.792 59.5509C30.7173 59.4869 30.68 59.4069 30.68 59.3109V57.7589C30.68 57.6202 30.7173 57.5189 30.792 57.4549C30.856 57.3909 30.9253 57.3429 31 57.3109L35.96 55.3269L31 53.2949C30.9147 53.2522 30.84 53.1989 30.776 53.1349C30.712 53.0709 30.68 52.9695 30.68 52.8309V51.3109C30.68 51.2149 30.7173 51.1349 30.792 51.0709C30.856 50.9962 30.9307 50.9589 31.016 50.9589C31.0693 50.9589 31.144 50.9802 31.24 51.0229L41.72 55.5509C41.8053 55.5829 41.88 55.6362 41.944 55.7109C42.008 55.7749 42.04 55.8762 42.04 56.0149V57.5189ZM39.16 46.28C39.16 47.5067 38.8187 48.4827 38.136 49.208C37.4533 49.9227 36.4613 50.3013 35.16 50.344C35.0747 50.344 34.9627 50.344 34.824 50.344C34.6747 50.344 34.5573 50.344 34.472 50.344C33.6507 50.3013 32.9467 50.1147 32.36 49.784C31.7627 49.4533 31.3093 48.9893 31 48.392C30.68 47.7947 30.52 47.096 30.52 46.296C30.52 45.4 30.7067 44.6533 31.08 44.056C31.4427 43.448 31.944 42.9947 32.584 42.696C33.2133 42.3867 33.9387 42.232 34.76 42.232H35.128C35.2347 42.232 35.3253 42.2747 35.4 42.36C35.4747 42.4347 35.512 42.5253 35.512 42.632V47.864C35.5227 47.864 35.544 47.864 35.576 47.864C35.5973 47.864 35.6187 47.864 35.64 47.864C35.9813 47.8533 36.296 47.7893 36.584 47.672C36.8613 47.544 37.0853 47.368 37.256 47.144C37.4267 46.9093 37.512 46.632 37.512 46.312C37.512 46.0453 37.4747 45.8267 37.4 45.656C37.3253 45.4853 37.2347 45.3467 37.128 45.24C37.0213 45.1227 36.9307 45.0373 36.856 44.984C36.7493 44.888 36.6853 44.8133 36.664 44.76C36.632 44.696 36.616 44.6 36.616 44.472V42.808C36.616 42.7013 36.648 42.616 36.712 42.552C36.7653 42.4773 36.8453 42.4453 36.952 42.456C37.1227 42.4667 37.336 42.5573 37.592 42.728C37.8373 42.888 38.0827 43.128 38.328 43.448C38.5627 43.768 38.76 44.168 38.92 44.648C39.08 45.1173 39.16 45.6613 39.16 46.28ZM34.056 47.864V44.728H34.024C33.64 44.728 33.3093 44.792 33.032 44.92C32.744 45.0373 32.52 45.2133 32.36 45.448C32.2 45.6827 32.12 45.9653 32.12 46.296C32.12 46.6267 32.2 46.9093 32.36 47.144C32.52 47.3787 32.744 47.56 33.032 47.688C33.3093 47.8053 33.64 47.864 34.024 47.864H34.056ZM39.16 38.1846C39.16 38.75 39.0533 39.2566 38.84 39.7046C38.616 40.1526 38.3173 40.51 37.944 40.7766C37.5707 41.0433 37.1547 41.1766 36.696 41.1766C35.9387 41.1766 35.3413 40.8726 34.904 40.2646C34.4667 39.646 34.168 38.8353 34.008 37.8326L33.704 35.7366H33.416C33 35.7366 32.68 35.8326 32.456 36.0246C32.232 36.2166 32.12 36.5526 32.12 37.0326C32.12 37.3846 32.1893 37.6673 32.328 37.8806C32.4667 38.094 32.648 38.2593 32.872 38.3766C33.0107 38.462 33.08 38.5846 33.08 38.7446V40.2646C33.08 40.382 33.048 40.4726 32.984 40.5366C32.9093 40.6006 32.824 40.6273 32.728 40.6166C32.5467 40.6166 32.3333 40.5473 32.088 40.4086C31.8427 40.27 31.6027 40.0566 31.368 39.7686C31.1227 39.4806 30.92 39.1126 30.76 38.6646C30.6 38.2166 30.52 37.6673 30.52 37.0166C30.52 36.3446 30.6 35.7686 30.76 35.2886C30.92 34.8086 31.144 34.4246 31.432 34.1366C31.72 33.8486 32.056 33.6353 32.44 33.4966C32.8133 33.358 33.2187 33.2886 33.656 33.2886H38.6C38.7173 33.2886 38.8133 33.326 38.888 33.4006C38.9627 33.4753 39 33.5713 39 33.6886V35.2566C39 35.3633 38.9627 35.454 38.888 35.5286C38.8133 35.6033 38.7173 35.6406 38.6 35.6406H38.008C38.2107 35.7793 38.4027 35.966 38.584 36.2006C38.7547 36.4353 38.8933 36.718 39 37.0486C39.1067 37.3686 39.16 37.7473 39.16 38.1846ZM37.496 37.5446C37.496 37.1926 37.4213 36.878 37.272 36.6006C37.1227 36.3233 36.8933 36.1046 36.584 35.9446C36.2747 35.7846 35.8853 35.7046 35.416 35.7046H35.144L35.384 37.1926C35.48 37.7686 35.624 38.19 35.816 38.4566C36.008 38.7233 36.2427 38.8566 36.52 38.8566C36.7227 38.8566 36.8987 38.798 37.048 38.6806C37.1973 38.5526 37.3093 38.3873 37.384 38.1846C37.4587 37.982 37.496 37.7686 37.496 37.5446ZM39 30.9674C39 31.074 38.9627 31.1647 38.888 31.2394C38.8133 31.314 38.7173 31.3514 38.6 31.3514H31.08C30.9733 31.3514 30.8827 31.314 30.808 31.2394C30.7227 31.1647 30.68 31.074 30.68 30.9674V29.3994C30.68 29.2927 30.7227 29.202 30.808 29.1274C30.8827 29.042 30.9733 28.9994 31.08 28.9994H31.72C31.3893 28.7327 31.1333 28.4074 30.952 28.0234C30.7707 27.6287 30.68 27.1754 30.68 26.6634V25.9754C30.68 25.8687 30.7173 25.778 30.792 25.7034C30.8667 25.6287 30.9627 25.5914 31.08 25.5914H32.456C32.5733 25.5914 32.6693 25.6287 32.744 25.7034C32.8187 25.778 32.856 25.8687 32.856 25.9754V27.3834C32.856 27.8527 32.9893 28.2207 33.256 28.4874C33.512 28.754 33.88 28.8874 34.36 28.8874H38.6C38.7173 28.8874 38.8133 28.9247 38.888 28.9994C38.9627 29.074 39 29.17 39 29.2874V30.9674Z" fill="#E7E7E3"/>
</svg>
